<svg xmlns="http://www.w3.org/2000/svg" width="40.653" height="33.2" viewBox="0 0 40.653 33.2">
  <defs>
    <style>
      .cls-1 {
        fill: #0090ff;
      }
    </style>
  </defs>
  <g id="cloud-computing" transform="translate(0 -5.5)">
    <g id="Component_1_1" data-name="Component 1 – 1" transform="translate(0 5.5)">
      <path id="Path_508" data-name="Path 508" class="cls-1" d="M34.539,16.472A11.6,11.6,0,0,0,23.094,5.5a11.943,11.943,0,0,0-9.449,4.748c-.051-.026-.105-.045-.157-.07-.133-.064-.267-.125-.4-.18-.08-.032-.161-.06-.243-.089-.133-.047-.269-.088-.407-.125-.081-.022-.162-.044-.244-.063-.149-.034-.3-.06-.454-.082-.071-.011-.142-.024-.213-.033a5.991,5.991,0,0,0-.683-.041,6.1,6.1,0,0,0-6.1,6.1c0,.087.005.173.011.258A9.369,9.369,0,0,0,0,23.9a8.713,8.713,0,0,0,8.7,8.7h4.243L9.379,38.7H31.273l-3.567-6.1h4.8a8.159,8.159,0,0,0,8.15-8.15A8.339,8.339,0,0,0,34.539,16.472ZM28.911,37.345H11.742L14.516,32.6h0l5.81-9.935L26.137,32.6h0Zm3.592-6.1H26.914L20.327,19.983,13.739,31.247H8.7A7.356,7.356,0,0,1,1.355,23.9a8.055,8.055,0,0,1,4.358-6.947l.385-.184v-.427c0-.083.005-.169.01-.254l.006-.117-.008-.137c0-.056-.008-.112-.008-.169a4.711,4.711,0,0,1,5.364-4.7c.053.007.106.016.159.024a4.761,4.761,0,0,1,.535.119l.072.018a4.728,4.728,0,0,1,.566.217c.047.022.094.045.141.068a4.682,4.682,0,0,1,.478.27,4.742,4.742,0,0,1,2.172,3.981.678.678,0,1,0,1.355,0,6.084,6.084,0,0,0-2.168-4.655,10.731,10.731,0,0,1,8.323-4.153,10.229,10.229,0,0,1,10.061,9.41,12.948,12.948,0,0,0-2.767.084.678.678,0,0,0,.1,1.348.666.666,0,0,0,.1-.008,12.48,12.48,0,0,1,3.174,0A6.944,6.944,0,0,1,39.3,24.452,6.8,6.8,0,0,1,32.5,31.247Z" transform="translate(0 -5.5)"/>
    </g>
    <path id="Path_509" data-name="Path 509" class="cls-1" d="M29.678,35.5a.677.677,0,0,0-.678.678V41.6a.678.678,0,0,0,1.355,0v-5.42A.677.677,0,0,0,29.678,35.5Z" transform="translate(-9.351 -9.673)"/>
    <path id="Path_510" data-name="Path 510" class="cls-1" d="M29.678,47.5a.677.677,0,0,0-.678.678v.678a.678.678,0,0,0,1.355,0v-.678A.677.677,0,0,0,29.678,47.5Z" transform="translate(-9.351 -13.543)"/>
  </g>
</svg>
