<svg width="22" height="22" viewBox="0 0 22 22" fill="none" xmlns="http://www.w3.org/2000/svg">
<path d="M21.4202 10.5463C21.5135 10.4444 21.5855 10.3248 21.6319 10.1947C21.6783 10.0645 21.6981 9.92631 21.6902 9.78834C21.6823 9.65036 21.6468 9.51538 21.5858 9.39136C21.5248 9.26734 21.4396 9.15681 21.3352 9.06629L11.6412 0.584287C11.4198 0.398125 11.139 0.297557 10.8498 0.30086C10.5606 0.304163 10.2822 0.411118 10.0652 0.602287L0.337152 9.51829C0.234906 9.61096 0.152364 9.72326 0.0944449 9.84851C0.0365263 9.97376 0.00441704 10.1094 3.11249e-05 10.2473C-0.00435479 10.3852 0.0190724 10.5226 0.0689162 10.6513C0.11876 10.78 0.194 10.8973 0.290152 10.9963L0.534152 11.2503C0.716909 11.4523 0.970195 11.5765 1.24182 11.5974C1.51345 11.6182 1.78272 11.5341 1.99415 11.3623L2.72115 10.7113V20.2423C2.72115 20.5229 2.83262 20.792 3.03103 20.9904C3.22945 21.1888 3.49855 21.3003 3.77915 21.3003H7.57115C7.85175 21.3003 8.12086 21.1888 8.31927 20.9904C8.51768 20.792 8.62915 20.5229 8.62915 20.2423V13.5743H13.4652V20.2423C13.4573 20.3779 13.4771 20.5137 13.5234 20.6414C13.5698 20.7691 13.6416 20.886 13.7347 20.985C13.8277 21.084 13.9399 21.163 14.0644 21.2172C14.189 21.2714 14.3233 21.2997 14.4592 21.3003H18.4772C18.7578 21.3003 19.0269 21.1888 19.2253 20.9904C19.4237 20.792 19.5352 20.5229 19.5352 20.2423V10.8423L19.9842 11.2363C20.2312 11.4533 20.7512 11.2793 21.1442 10.8463L21.4202 10.5463Z" fill="#0090FF"/>
</svg>
