<svg xmlns="http://www.w3.org/2000/svg" width="239" height="65.11" viewBox="0 0 239 65.11">
  <defs>
    <style>
      .cls-1 {
        font-size: 35px;
        font-family: SegoeUIBlack, Segoe UI;
      }

      .cls-2 {
        fill: #cefc34;
      }

      .cls-3 {
        fill: #4cd964;
      }
    </style>
  </defs>
  <g id="Group_180" data-name="Group 180" transform="translate(-112 -213.69)">
    <text id="My" class="cls-1" transform="translate(112 257)"><tspan x="0" y="0">My</tspan></text>
    <g id="Group_179" data-name="Group 179" transform="translate(8.188 11.69)">
      <path id="Path_505" data-name="Path 505" class="cls-2" d="M4220.139,204.6h-3.032s-10.129.62-15.573,2.481-13.781,7.028-13.781,7.028-6.063,4.272-8.82,7.924-7.717,8.338-9.1,14.126-1.93,10.612,0,16.4,2.963,8.131,6.684,9.991a16.473,16.473,0,0,0,9.784,1.723c2.412-.413,6.96-.345,10.612-2.481s4.961-1.929,8.269-5.857,3.721-3.1,5.03-6.546,3.169-5.788,3.308-7.855,0-3.514,0-5.375v-9.1s-.414-5.857,0-7.028.827-5.788,2-7.649,5.306-7.786,5.306-7.786Z" transform="translate(-4010.469 -0.808)"/>
      <path id="Path_504" data-name="Path 504" class="cls-3" d="M67.265,9.117a1.022,1.022,0,0,0-.929-.7,57.436,57.436,0,0,0-16.1,1.995A63.731,63.731,0,0,0,29.8,19.563a1.022,1.022,0,1,0,1.168,1.678A61.663,61.663,0,0,1,50.745,12.39a66.85,66.85,0,0,1,8.217-1.558c-1.1.473-2.27,1.027-3.492,1.676A37.375,37.375,0,0,0,40.036,27.015a20.842,20.842,0,0,1-.428-4,1.022,1.022,0,0,0-2.044,0c0,.452.036,4.223,1.178,6.547-1.574,3.36-3.046,6.72-4.47,9.973Q33.364,41.6,32.481,43.6a16.348,16.348,0,0,1-1.8-8.981,1.022,1.022,0,1,0-2.038-.165,18.014,18.014,0,0,0,2.82,11.424,107.709,107.709,0,0,1-5.4,10.673A27.906,27.906,0,0,1,23.616,45.7a1.022,1.022,0,0,0-2.044,0,30.053,30.053,0,0,0,3.2,12.91,21.675,21.675,0,0,1-6.627,6.829C10.7,57.358,9.978,42.2,22.972,28.168a48.135,48.135,0,0,1,4.818-4.526A1.022,1.022,0,0,0,26.5,22.06a50.244,50.244,0,0,0-5.024,4.719C7.765,41.583,8.537,57.718,16.4,66.557,9.552,71.163,1.084,71.451,1,71.453A1.022,1.022,0,0,0,1.022,73.5h.027c.392-.01,9.426-.306,16.826-5.475,2.242,1.829,5.759,2.942,10.023,2.942A33.849,33.849,0,0,0,44.487,66.11a26.289,26.289,0,0,0,11.8-14.443A44.074,44.074,0,0,0,58.2,32.577c-1.266-12.483,3.449-18.116,8.734-22.343A1.023,1.023,0,0,0,67.265,9.117Zm-9.03,8.362c-2.011,4.209-2.688,9.215-2.07,15.3a42.035,42.035,0,0,1-1.805,18.195A24.3,24.3,0,0,1,43.47,64.336a31.717,31.717,0,0,1-15.243,4.583,14.924,14.924,0,0,1-8.5-2.062A20.767,20.767,0,0,0,24.4,62.545h.262a44.915,44.915,0,0,0,5.081-.3c4.415-.516,7.895-1.605,10.344-3.238a1.022,1.022,0,0,0-1.134-1.7c-3.773,2.515-9.851,3.062-12.987,3.169a71.195,71.195,0,0,0,5.626-10.013A18.052,18.052,0,0,0,42.57,46.5,1.022,1.022,0,0,0,41.3,44.9a16.275,16.275,0,0,1-8.723,3.468c1.179-2.551,2.357-5.242,3.572-8.016.627-1.432,1.264-2.885,1.913-4.349l.222,0a13.508,13.508,0,0,0,7.981-2.874,1.022,1.022,0,1,0-1.217-1.643,12.4,12.4,0,0,1-5.235,2.335c-.3.052-.576.085-.824.106q.894-1.983,1.828-3.973C44.621,21.874,51.377,17,56.374,14.343a46.25,46.25,0,0,1,5.868-2.613A22.29,22.29,0,0,0,58.235,17.48Z" transform="translate(146 193.613)"/>
    </g>
    <text id="Weather" class="cls-1" transform="translate(203 257)"><tspan x="0" y="0">Weather</tspan></text>
  </g>
</svg>
