<svg width="22" height="22" viewBox="0 0 22 22" fill="none" xmlns="http://www.w3.org/2000/svg">
<path fill-rule="evenodd" clip-rule="evenodd" d="M10.7878 0.200195C11.836 0.200195 12.8607 0.511035 13.7323 1.09341C14.6039 1.67578 15.2832 2.50353 15.6844 3.47197C16.0855 4.44042 16.1905 5.50607 15.986 6.53417C15.7815 7.56227 15.2767 8.50664 14.5355 9.24786C13.7942 9.98908 12.8499 10.4939 11.8218 10.6984C10.7937 10.9029 9.72802 10.7979 8.75957 10.3968C7.79112 9.99561 6.96338 9.3163 6.381 8.44472C5.79863 7.57314 5.48779 6.54844 5.48779 5.50019C5.48779 4.09455 6.04619 2.74647 7.04013 1.75253C8.03407 0.758586 9.38215 0.200195 10.7878 0.200195ZM0.237793 19.3302C0.269793 15.3362 4.9608 12.1052 10.7458 12.1052C16.5308 12.1052 21.2208 15.3362 21.2538 19.3302V21.3002H0.237793V19.3302Z" fill="#E6E6E6"/>
</svg>
