<svg width="71" height="52" viewBox="0 0 71 52" fill="none" xmlns="http://www.w3.org/2000/svg">
<path d="M22.7929 31.1678C27.7496 31.1678 31.7679 27.1495 31.7679 22.1928C31.7679 17.236 27.7496 13.2178 22.7929 13.2178C17.8361 13.2178 13.8179 17.236 13.8179 22.1928C13.8179 27.1495 17.8361 31.1678 22.7929 31.1678Z" fill="#FFDC7B"/>
<path d="M22.7973 9.80601C22.6556 9.80653 22.5153 9.77909 22.3843 9.72525C22.2533 9.67141 22.1342 9.59224 22.0339 9.49227C21.9335 9.3923 21.8539 9.27351 21.7996 9.1427C21.7452 9.01189 21.7173 8.87165 21.7173 8.73001V1.07601C21.7173 0.934368 21.7452 0.794122 21.7996 0.663314C21.8539 0.532506 21.9335 0.413711 22.0339 0.313743C22.1342 0.213775 22.2533 0.1346 22.3843 0.0807621C22.5153 0.0269239 22.6556 -0.000519105 22.7973 7.43562e-06C22.9386 7.43562e-06 23.0785 0.027839 23.2091 0.0819131C23.3396 0.135987 23.4582 0.215245 23.5581 0.315161C23.658 0.415076 23.7373 0.533694 23.7914 0.66424C23.8455 0.794786 23.8733 0.934705 23.8733 1.07601V8.73001C23.8733 8.87131 23.8455 9.01123 23.7914 9.14178C23.7373 9.27232 23.658 9.39094 23.5581 9.49085C23.4582 9.59077 23.3396 9.67003 23.2091 9.7241C23.0785 9.77818 22.9386 9.80601 22.7973 9.80601Z" fill="#FFDC7B"/>
<path d="M22.7972 44.3901C22.5118 44.3901 22.2381 44.2767 22.0363 44.0749C21.8346 43.8731 21.7212 43.5995 21.7212 43.3141V35.6561C21.7212 35.3707 21.8346 35.097 22.0363 34.8952C22.2381 34.6934 22.5118 34.5801 22.7972 34.5801C23.0826 34.5801 23.3563 34.6934 23.558 34.8952C23.7598 35.097 23.8732 35.3707 23.8732 35.6561V43.3101C23.8737 43.4517 23.8463 43.5921 23.7924 43.7231C23.7386 43.8541 23.6594 43.9732 23.5595 44.0735C23.4595 44.1738 23.3407 44.2535 23.2099 44.3078C23.0791 44.3621 22.9388 44.3901 22.7972 44.3901Z" fill="#FFDC7B"/>
<path d="M31.5541 13.452C31.3525 13.2502 31.2393 12.9767 31.2393 12.6915C31.2393 12.4063 31.3525 12.1327 31.5541 11.931L36.9661 6.51695C37.1678 6.31538 37.4414 6.20215 37.7266 6.20215C38.0118 6.20215 38.2853 6.31538 38.4871 6.51695C38.6886 6.71872 38.8019 6.99225 38.8019 7.27745C38.8019 7.56266 38.6886 7.83619 38.4871 8.03795L33.0751 13.45C32.8736 13.6518 32.6002 13.7654 32.315 13.7658C32.0298 13.7661 31.7561 13.6533 31.5541 13.452Z" fill="#FFDC7B"/>
<path d="M7.10192 37.8875C6.90034 37.6857 6.78711 37.4122 6.78711 37.127C6.78711 36.8418 6.90034 36.5682 7.10192 36.3665L12.5139 30.9545C12.7157 30.7529 12.9892 30.6396 13.2744 30.6396C13.5596 30.6396 13.8332 30.7529 14.0349 30.9545C14.2365 31.1562 14.3497 31.4297 14.3497 31.715C14.3497 32.0002 14.2365 32.2737 14.0349 32.4755L8.62292 37.8875C8.42116 38.089 8.14762 38.2023 7.86242 38.2023C7.57721 38.2023 7.30368 38.089 7.10192 37.8875Z" fill="#FFDC7B"/>
<path d="M35.1802 22.1971C35.1802 21.9117 35.2935 21.638 35.4953 21.4362C35.6971 21.2345 35.9708 21.1211 36.2562 21.1211H43.9102C44.1956 21.1211 44.4692 21.2345 44.671 21.4362C44.8728 21.638 44.9862 21.9117 44.9862 22.1971C44.9862 22.3384 44.9583 22.4783 44.9043 22.6089C44.8502 22.7394 44.7709 22.858 44.671 22.9579C44.5711 23.0579 44.4525 23.1371 44.3219 23.1912C44.1914 23.2453 44.0515 23.2731 43.9102 23.2731H36.2562C35.9708 23.2731 35.6971 23.1597 35.4953 22.9579C35.2935 22.7562 35.1802 22.4825 35.1802 22.1971Z" fill="#FFDC7B"/>
<path d="M0.600105 22.1972C0.599579 22.0555 0.627022 21.9152 0.68086 21.7842C0.734698 21.6532 0.813872 21.5341 0.91384 21.4338C1.01381 21.3334 1.1326 21.2538 1.26341 21.1995C1.39422 21.1452 1.53447 21.1172 1.67611 21.1172H9.3301C9.47174 21.1172 9.61199 21.1452 9.7428 21.1995C9.87361 21.2538 9.9924 21.3334 10.0924 21.4338C10.1923 21.5341 10.2715 21.6532 10.3254 21.7842C10.3792 21.9152 10.4066 22.0555 10.4061 22.1972C10.405 22.4819 10.2912 22.7545 10.0895 22.9554C9.88787 23.1564 9.61479 23.2692 9.3301 23.2692H1.67611C1.39142 23.2692 1.11834 23.1564 0.916669 22.9554C0.714994 22.7545 0.601163 22.4819 0.600105 22.1972Z" fill="#FFDC7B"/>
<path d="M31.5541 30.9545C31.7558 30.7529 32.0294 30.6396 32.3146 30.6396C32.5998 30.6396 32.8733 30.7529 33.0751 30.9545L38.4871 36.3665C38.6886 36.5682 38.8019 36.8418 38.8019 37.127C38.8019 37.4122 38.6886 37.6857 38.4871 37.8875C38.2853 38.089 38.0118 38.2023 37.7266 38.2023C37.4414 38.2023 37.1678 38.089 36.9661 37.8875L31.5541 32.4755C31.3525 32.2737 31.2393 32.0002 31.2393 31.715C31.2393 31.4297 31.3525 31.1562 31.5541 30.9545Z" fill="#FFDC7B"/>
<path d="M7.10196 6.50231C7.30372 6.30073 7.57726 6.1875 7.86246 6.1875C8.14767 6.1875 8.4212 6.30073 8.62296 6.50231L14.05 11.9143C14.1523 12.0145 14.2337 12.1341 14.2892 12.2662C14.3448 12.3982 14.3734 12.5401 14.3734 12.6833C14.3734 12.8266 14.3448 12.9684 14.2892 13.1004C14.2337 13.2325 14.1523 13.3521 14.05 13.4523C13.8482 13.6539 13.5747 13.7671 13.2895 13.7671C13.0043 13.7671 12.7307 13.6539 12.529 13.4523L7.09996 8.02331C6.89839 7.82155 6.78516 7.54801 6.78516 7.26281C6.78516 6.9776 6.89839 6.70407 7.09996 6.50231H7.10196Z" fill="#FFDC7B"/>
<path d="M63.9231 37.8866H63.8401C64.6981 35.905 64.8994 33.7008 64.4144 31.5967C63.9294 29.4925 62.7836 27.5988 61.1447 26.1928C59.5059 24.7867 57.46 23.9422 55.3066 23.7827C53.1531 23.6232 51.0052 24.1573 49.1771 25.3066C47.899 22.1281 45.5048 19.5253 42.444 17.9867C39.3831 16.4481 35.866 16.0795 32.5526 16.9499C29.2392 17.8204 26.3574 19.8702 24.448 22.7146C22.5386 25.5589 21.7329 29.0023 22.1821 32.3986H22.0651C19.5605 32.3986 17.1585 33.3935 15.3875 35.1645C13.6165 36.9355 12.6216 39.3375 12.6216 41.8421C12.6216 44.3466 13.6165 46.7486 15.3875 48.5196C17.1585 50.2906 19.5605 51.2856 22.0651 51.2856H63.9231C64.8194 51.3124 65.712 51.159 66.548 50.8346C67.3839 50.5101 68.1463 50.0211 68.7898 49.3965C69.4333 48.772 69.9448 48.0247 70.2942 47.1988C70.6436 46.3729 70.8236 45.4853 70.8236 44.5886C70.8236 43.6918 70.6436 42.8042 70.2942 41.9784C69.9448 41.1525 69.4333 40.4051 68.7898 39.7806C68.1463 39.1561 67.3839 38.6671 66.548 38.3426C65.712 38.0181 64.8194 37.8647 63.9231 37.8916V37.8866Z" fill="white"/>
</svg>
