<svg width="17" height="17" viewBox="0 0 17 17" fill="none" xmlns="http://www.w3.org/2000/svg">
<path d="M16.1999 9.30211C15.7241 8.99468 15.1662 8.83882 14.5999 8.85511C14.2043 8.80809 13.8034 8.87462 13.4441 9.04691C13.0848 9.2192 12.782 9.49014 12.5709 9.82811H12.4829C12.2733 9.48792 11.9706 9.21485 11.6107 9.04119C11.2508 8.86753 10.8487 8.80053 10.4519 8.84811C9.88546 8.83241 9.32755 8.98898 8.85194 9.29711V13.9971C8.85194 14.56 8.62832 15.0999 8.23028 15.4979C7.83223 15.896 7.29236 16.1196 6.72944 16.1196C6.16652 16.1196 5.62665 15.896 5.22861 15.4979C4.83056 15.0999 4.60694 14.56 4.60694 13.9971C4.60694 13.873 4.65625 13.754 4.74402 13.6662C4.83178 13.5784 4.95082 13.5291 5.07494 13.5291C5.19906 13.5291 5.3181 13.5784 5.40587 13.6662C5.49363 13.754 5.54294 13.873 5.54294 13.9971C5.54294 14.3117 5.66789 14.6133 5.89031 14.8357C6.11273 15.0582 6.41439 15.1831 6.72894 15.1831C7.04349 15.1831 7.34515 15.0582 7.56757 14.8357C7.78999 14.6133 7.91494 14.3117 7.91494 13.9971V9.30411C7.43945 8.99563 6.88153 8.83871 6.31494 8.85411C5.9187 8.8066 5.51712 8.87298 5.15724 9.04548C4.79736 9.21798 4.49409 9.48946 4.28294 9.82811H4.19594C3.98628 9.48792 3.68361 9.21485 3.32371 9.04119C2.96381 8.86753 2.56171 8.80053 2.16494 8.84811C1.59867 8.83182 1.04077 8.98768 0.564941 9.29511C0.867941 5.96211 4.00494 3.31011 7.91294 3.11311V2.76211C7.91294 2.63799 7.96225 2.51895 8.05002 2.43118C8.13778 2.34342 8.25682 2.29411 8.38094 2.29411C8.50506 2.29411 8.6241 2.34342 8.71187 2.43118C8.79963 2.51895 8.84894 2.63799 8.84894 2.76211V3.11211C12.7599 3.31111 15.8979 5.96211 16.1999 9.30211ZM5.63194 0.911109C5.24839 1.17 4.89576 1.47197 4.58094 1.81111C4.54767 1.87036 4.52661 1.93568 4.51898 2.00321C4.51136 2.07073 4.51734 2.1391 4.53656 2.20428C4.55578 2.26946 4.58786 2.33013 4.63091 2.38272C4.67395 2.4353 4.72709 2.47873 4.78719 2.51045C4.84729 2.54217 4.91313 2.56153 4.98083 2.5674C5.04853 2.57327 5.11673 2.56552 5.18139 2.54461C5.24604 2.5237 5.30586 2.49005 5.35731 2.44566C5.40876 2.40126 5.45079 2.34701 5.48094 2.28611C5.58359 1.83504 5.63425 1.3737 5.63194 0.911109ZM7.69494 0.162109C7.3114 0.420998 6.95876 0.722966 6.64394 1.06211C6.58507 1.18104 6.57497 1.31826 6.6158 1.44453C6.65664 1.5708 6.74517 1.67613 6.86253 1.73807C6.97989 1.80001 7.11681 1.81367 7.24409 1.77613C7.37138 1.73859 7.47897 1.65282 7.54394 1.53711C7.64661 1.08604 7.69727 0.624705 7.69494 0.162109ZM10.1269 0.162109C9.74339 0.420998 9.39076 0.722966 9.07594 1.06211C9.04267 1.12136 9.02161 1.18668 9.01398 1.25421C9.00636 1.32173 9.01234 1.3901 9.03156 1.45528C9.05078 1.52046 9.08286 1.58113 9.12591 1.63372C9.16895 1.6863 9.22209 1.72973 9.28219 1.76145C9.34229 1.79317 9.40813 1.81253 9.47583 1.8184C9.54353 1.82427 9.61173 1.81652 9.67638 1.79561C9.74104 1.7747 9.80086 1.74105 9.85231 1.69666C9.90376 1.65226 9.94579 1.59801 9.97594 1.53711C10.0786 1.08604 10.1293 0.624704 10.1269 0.162109V0.162109ZM12.0629 0.862109C11.6794 1.121 11.3268 1.42297 11.0119 1.76211C10.9531 1.88104 10.943 2.01826 10.9838 2.14453C11.0246 2.2708 11.1132 2.37613 11.2305 2.43807C11.3479 2.50001 11.4848 2.51367 11.6121 2.47613C11.7394 2.43859 11.847 2.35282 11.9119 2.23711C12.0146 1.78604 12.0653 1.3247 12.0629 0.862109Z" fill="white"/>
</svg>
