<svg width="21" height="16" viewBox="0 0 21 16" fill="none" xmlns="http://www.w3.org/2000/svg">
<path d="M11.674 10.1172H3.56299V11.2972H11.674C12.1096 11.2977 12.5272 11.471 12.8352 11.779C13.1432 12.087 13.3165 12.5046 13.317 12.9402C13.3165 13.328 13.1622 13.6999 12.8879 13.9741C12.6137 14.2484 12.2418 14.4027 11.854 14.4032C11.5092 14.4032 11.1785 14.2662 10.9347 14.0224C10.691 13.7786 10.554 13.448 10.554 13.1032H9.37699C9.37778 13.7599 9.63901 14.3895 10.1034 14.8538C10.5677 15.3182 11.1973 15.5794 11.854 15.5802C12.5547 15.5794 13.2265 15.3007 13.722 14.8052C14.2175 14.3097 14.4962 13.6379 14.497 12.9372C14.4954 12.1892 14.1974 11.4724 13.6682 10.9438C13.1391 10.4152 12.4219 10.118 11.674 10.1172Z" fill="white"/>
<path d="M16.451 0.700195C15.4636 0.701254 14.517 1.09394 13.8189 1.7921C13.1207 2.49026 12.728 3.43685 12.727 4.4242H13.907C13.9078 3.74973 14.1761 3.10311 14.653 2.62619C15.1299 2.14927 15.7765 1.88099 16.451 1.8802C17.1984 1.88099 17.915 2.17825 18.4434 2.70674C18.9719 3.23523 19.2692 3.95179 19.27 4.6992C19.2692 5.5259 18.9404 6.31851 18.3559 6.90308C17.7713 7.48764 16.9787 7.8164 16.152 7.81719H0.312988V8.9972H16.152C17.2924 8.9972 18.3861 8.54416 19.1925 7.73775C19.999 6.93135 20.452 5.83763 20.452 4.6972C20.4512 3.63668 20.0293 2.61988 19.279 1.87035C18.5287 1.12083 17.5115 0.69993 16.451 0.700195Z" fill="white"/>
<path d="M9.58999 2.10156C9.03546 2.10341 8.50417 2.32451 8.11205 2.71663C7.71994 3.10874 7.49883 3.64003 7.49699 4.19456H8.67699C8.67725 3.9525 8.77353 3.72043 8.94469 3.54927C9.11586 3.3781 9.34793 3.28183 9.58999 3.28156C9.72752 3.28117 9.86378 3.3079 9.99096 3.36023C10.1182 3.41255 10.2338 3.48945 10.3312 3.58651C10.4286 3.68358 10.506 3.7989 10.5588 3.92589C10.6116 4.05288 10.6389 4.18903 10.639 4.32656C10.6389 4.48287 10.6079 4.63762 10.5479 4.78196C10.4879 4.9263 10.4 5.05739 10.2893 5.16773C10.1786 5.27807 10.0472 5.3655 9.90269 5.42501C9.75815 5.48453 9.6033 5.51496 9.44699 5.51456H3.56299V6.69456H9.44699C10.0748 6.69377 10.6766 6.44403 11.1205 6.00011C11.5645 5.5562 11.8142 4.95435 11.815 4.32656C11.8145 3.73662 11.5799 3.17099 11.1627 2.75383C10.7456 2.33668 10.1799 2.10209 9.58999 2.10156Z" fill="white"/>
</svg>
